<?xml version="1.0" encoding="utf-8"?>
<!-- Generator: Adobe Illustrator 22.0.1, SVG Export Plug-In . SVG Version: 6.00 Build 0)  -->
<svg version="1.1" id="Layer_1" xmlns="http://www.w3.org/2000/svg" xmlns:xlink="http://www.w3.org/1999/xlink" x="0px" y="0px"
	 viewBox="0 0 411.3 60" style="enable-background:new 0 0 411.3 60;" xml:space="preserve">
<style type="text/css">
	.st0{fill:#AD0100;}
</style>
<title>Sparxoo_Logo_Solo</title>
<path class="st0" d="M30.8,60C12.3,60,5.2,52.1,0.6,46.9L0,46.3l0.6-0.6l5.9-5L7,41.4c3.1,4.1,8.2,11,24.5,11
	c9,0,19.4-2.7,19.4-10.2c0-7.1-10.1-8.1-20.9-9.1C17.2,31.8,2.5,30.4,2.5,17.5C2.5,6.2,12.1,0,29.4,0c18.4,0,26.2,9,28.2,11.7
	l0.5,0.6l-6.1,5l-0.9-1c-2.5-2.9-7.8-9-21.8-9c-6.8,0-18.2,1.2-18.2,9.1c0,6.8,9.2,7.7,19.9,8.6c13.4,1.2,28.5,2.6,28.5,17.1
	C59.5,50.8,52,60,30.8,60 M2.4,46.4c4.7,5.3,11.4,11.9,28.4,11.9c16.7,0,27.1-6.2,27.1-16.2c0-12.9-13.7-14.2-27-15.4
	c-11-1-21.4-2-21.4-10.3c0-7,7.1-10.8,19.9-10.8c14.4,0,20.3,6.4,22.9,9.4l3.6-2.9C51.7,6.9,42.8,1.7,29.4,1.7
	C8.6,1.7,4.2,10.3,4.2,17.5c0,11.3,13.3,12.6,26.1,13.8c11.5,1.1,22.4,2.2,22.4,10.8c0,8.8-10.9,11.9-21.1,11.9
	c-16.2,0-22-6.5-25.4-10.9L2.4,46.4z"/>
<path class="st0" d="M72.4,58.6H64V1.4h33.4c14.8,0,22.3,5.6,22.3,16.7c0,11.2-7.5,16.8-22.3,16.8h-25V58.6z M65.7,56.9h5V33.2h26.7
	c13.9,0,20.6-5,20.6-15.1C118,8,111.3,3.1,97.4,3.1H65.7V56.9z M95.6,29H70.7V7.3h24.9c9.2,0,17.7,1.3,17.7,10.9
	C113.3,27.7,104.8,29,95.6,29 M72.4,27.3h23.2c11.5,0,16-2.5,16-9.1c0-6.6-4.5-9.2-16-9.2H72.4V27.3L72.4,27.3z"/>
<path class="st0" d="M172,58.6h-9.5l-7.2-14.4h-34.8l-7.3,14.4h-9.4l29.5-57.2h9.3L172,58.6z M163.6,56.9h5.7L141.6,3.1h-7.2
	l-27.7,53.9h5.6l7.3-14.4h36.9L163.6,56.9z M154.3,38.2h-32.5L138,5.6L154.3,38.2z M124.5,36.5h27.1L138,9.4L124.5,36.5z"/>
<path class="st0" d="M230.5,58.9H220l-17.9-24.6h-20.6v24.6h-8.4V1.6h32.9c10.4,0,22.7,2.8,22.7,16.4c0,10.6-8.7,15.2-16.8,16
	L230.5,58.9z M220.9,57.2h6.2l-18.3-24.7l1.6-0.1c15.9-0.7,16.7-12.2,16.7-14.4c0-9.7-7.1-14.7-21-14.7h-31.3v53.9h5V32.6H203
	L220.9,57.2z M204.6,28.3h-24.7V7.6h24.7c9.2,0,17.8,1.3,17.8,10.3C222.4,27,213.8,28.3,204.6,28.3 M181.6,26.6h23
	c10,0,16.1-1.5,16.1-8.7c0-7.2-6.2-8.6-16.1-8.6h-23L181.6,26.6L181.6,26.6z"/>
<path class="st0" d="M316.4,60c-16.1,0-33.4-9.3-33.4-29.7C283,12.2,296.4,0,316.4,0c20,0,33.4,12.2,33.4,30.3
	C349.8,50.7,332.5,60,316.4,60 M316.4,1.7c-19.3,0-31.7,11.2-31.7,28.7c0,13.9,9.8,28,31.7,28c21.9,0,31.7-14,31.7-28
	C348.1,12.9,335.6,1.7,316.4,1.7 M316.4,54c-12.8,0-26.5-6.5-26.5-24.9c0-13.8,10.9-23.5,26.5-23.5s26.5,9.6,26.5,23.5
	C342.9,41.2,335.9,54,316.4,54 M316.4,7.3c-14.6,0-24.8,9-24.8,21.8c0,14.5,9.3,23.2,24.8,23.2c12,0,24.8-6.1,24.8-23.2
	C341.2,16.3,331,7.3,316.4,7.3"/>
<path class="st0" d="M377.9,60c-16.1,0-33.4-9.3-33.4-29.7C344.5,12.2,358,0,377.9,0s33.4,12.2,33.4,30.3
	C411.3,50.7,394,60,377.9,60 M377.9,1.7c-19.3,0-31.7,11.2-31.7,28.7c0,13.9,9.8,28,31.7,28s31.7-14,31.7-28
	C409.7,12.9,397.2,1.7,377.9,1.7 M377.9,54c-12.8,0-26.5-6.5-26.5-24.9c0-13.8,10.9-23.5,26.5-23.5c15.6,0,26.5,9.6,26.5,23.5
	C404.5,41.2,397.5,54,377.9,54 M377.9,7.3c-14.6,0-24.8,9-24.8,21.8c0,14.5,9.3,23.2,24.8,23.2c12,0,24.8-6.1,24.8-23.2
	C402.8,16.3,392.6,7.3,377.9,7.3"/>
<path class="st0" d="M294.1,58.8H283l-22.4-24.4l-4.6-4.6L230,1.7h11.2l0.2,0.3l20.2,22l4.5,4.6L294.1,58.8z M283.7,57.1h6.5
	L265,29.7l-4.5-4.6l-20-21.8h-6.6l23.4,25.3l4.6,4.6L283.7,57.1z"/>
<path class="st0" d="M237.4,58.8h-10.5L259.6,24l20.7-22.3h11.2l-26.2,28l-5.2,4.8L237.4,58.8z M230.7,57.1h5.9l22.2-23.8l5.2-4.8
	l23.5-25.1H281l-20.2,21.8l-4.4,4.7L230.7,57.1z"/>
<rect x="179.9" y="27.2" class="st0" width="1.7" height="6"/>
<rect x="70.7" y="28.3" class="st0" width="1.7" height="6"/>
</svg>
